<svg xmlns="http://www.w3.org/2000/svg" viewBox="0 0 64 64" role="presentation">
  <defs>
    <radialGradient id="ball" cx="34%" cy="26%" r="72%">
      <stop offset="0" stop-color="#fff"/>
      <stop offset=".58" stop-color="#f5f6f7"/>
      <stop offset="1" stop-color="#cdd2d6"/>
    </radialGradient>
    <linearGradient id="panel" x1="0" y1="0" x2="1" y2="1">
      <stop stop-color="#22272b"/>
      <stop offset="1" stop-color="#050607"/>
    </linearGradient>
    <clipPath id="edge"><circle cx="32" cy="32" r="29.5"/></clipPath>
  </defs>
  <circle cx="32" cy="32" r="30" fill="url(#ball)" stroke="#171a1d" stroke-width="1.5"/>
  <g clip-path="url(#edge)" stroke="#50565b" stroke-width="1.15" stroke-linejoin="round">
    <path d="m32 20.3 9.2 6.7-3.5 10.8H26.3L22.8 27z" fill="url(#panel)" stroke="#0b0d0f"/>
    <path d="M32 20.3 28.2 9.2 17.7 7.5l-6.9 8.3L15.4 27l7.4.1" fill="none"/>
    <path d="M41.2 27 49 16.5 46.3 7.1 35.6 4.3l-7.4 4.9" fill="none"/>
    <path d="m37.7 37.8 8 10.4 11.2-1 4.4-10-6.2-9.4L41.2 27" fill="none"/>
    <path d="m26.3 37.8-8.1 10.4-11.1-1-4.4-10 6.2-9.4 13.9-.8" fill="none"/>
    <path d="m18.2 48.2 4.1 10.4 9.7 3.9 9.7-3.9 4-10.4-8-10.4" fill="none"/>
    <path d="m7.1 47.2-5.8 3.5m5.8-3.5 11.1 1M2.7 37.2l6.2-9.4m1.9-12 6.9-8.3m28.6-.4 2.7 9.4m7.9 30.7 5.8 3.5M41.7 58.6l1.1 5.5m-20.5-5.5-1.1 5.5" fill="none"/>
    <path d="m17.7 7.5 10.5 1.7 3.8 11.1 3.6-16" fill="none"/>
    <path d="m49 16.5 6.1 11.3M15.4 27 8.9 27.8m9.3 20.4 8.1-10.4m19.4 10.4-8-10.4" fill="none"/>
    <path d="m10.8 15.8-8.9-1.3-3 9.9 10 3.4zm38.2.7 6.1 11.3 10-3.4-3-9.9zm7.9 30.7-11.2 1-4 10.4 8.4 6.3 8.3-6.4zm-49.8 0 11.1 1 4.1 10.4-8.4 6.3-8.3-6.4z" fill="url(#panel)" stroke="#111416"/>
  </g>
  <ellipse cx="23" cy="15" rx="10" ry="6" fill="#fff" opacity=".2" transform="rotate(-24 23 15)"/>
</svg>
